<?xml version="1.0" encoding="UTF-8"?>
<svg id="Camada_1" data-name="Camada 1" xmlns="http://www.w3.org/2000/svg" viewBox="0 0 1024 1024">
  <defs>
    <style>
      .cls-1 {
        fill: #43321e;
      }

      .cls-2 {
        fill: #6b4a27;
      }

      .cls-3 {
        fill: #6fada0;
      }

      .cls-4 {
        fill: #694727;
      }
    </style>
  </defs>
  <path class="cls-4" d="M299.38,554.06c-136.48-143.24-85.03-375.4,93.74-454.59,172-76.2,375.5,31.29,403.51,217.84,41.87,278.8-303.61,439.99-497.25,236.75h0ZM258.8,345.64v24c-.73.27-1.2-1-1.5-1h-23c-.27,0-3.44,1.19-3.56,1.62,3.2,136.38,111.67,249.04,245.68,265.25,92.5,11.19,180.27-22.01,242.89-89.86,44.38-48.09,70.48-110.12,72.49-176.02l-29-1v-22.5c4.86-2.98,12.62-1.11,18.54-1.46,3.17-.19,6.2-1.51,9.46-1.04-4.97-111.64-83.05-209.18-187.49-245.02-165.92-56.92-354.81,53.32-371.5,230.55-.18,1.92-1.14,13.18-.94,13.85.39,1.26,1.29,1.43,2.43,1.64,3.51.65,24.13-.31,25.5,1h0ZM251.66,352.79c-1.42-2.29-17.2-.69-20.76-.05l-.1,8.91,20.07-.44.79-8.42ZM769.8,361.64h21v-10c-7.01-.09-13.92,1.7-21.01,1v9.01h.01Z"/>
  <path class="cls-1" d="M369.3,705.64c24.21,2.56,33.08,29.03,10.82,41.82l-8.31,3.17c17.09,1.6,30.54,11.27,26.55,30.07-2.07,9.78-17.77,19.94-27.06,19.94h-53.5l.94-4.56,8.81-1.68c1.34-1.86,1.17-4.07,1.29-6.22,1.35-23.49-1.02-48.35-.14-71.98-.32-5.82-6.46-4.47-10.91-4.55v-6.01c16.45,1.27,35.36-1.7,51.5,0h0ZM348.04,746.41c2.45,2.44,11.58.79,14.79-.23,9.47-3.01,12.17-10.5,10.88-19.95-1.77-12.99-16.4-14.39-26.83-11.49,1.02,5.74-1.9,28.61,1.16,31.67ZM348.44,754.79c-1.46.46-1.2,1.01-1.38,2.14-.59,3.88-.33,12.75-.3,17.16s-1.62,17.62,3.54,18.56c4.73.86,16.61.33,20.85-2.15,10.72-6.26,10.59-26.5-.45-32.25-3.55-1.85-18.91-4.52-22.25-3.46h-.01Z"/>
  <path class="cls-1" d="M536.3,705.64l56.01,66.01,1.03-6.54c-1.55-14.56,1.58-33.95-.61-47.91-1.39-8.84-11.87-1.88-9.94-11.56h30v6.01c-4.76-.63-8.11.37-8.94,5.55-.79,4.88-.9,14.39-1.09,19.88-.74,21.47.61,43.1.03,64.56-3.37-.29-7.43,1.08-10.09-1.42l-59.92-70.58v58.5c0,10.86,14.43,3.59,13,12.5h-33v-5c6.78.49,9.11-2.16,9.88-8.62,1.82-15.17,1.45-49.32.15-64.92-.72-8.63-2.96-11.28-12.04-10.46v-6.01h25.53Z"/>
  <path class="cls-1" d="M783.8,705.64l1.01,24.01h-6c-.09-6.59-1.9-12.88-8.93-14.58-1.22-.29-7.79-1.42-8.57-1.42h-16.5v34h16.5c5.08,0,9.63-4.78,8.5-10h5v30l-4.9-.1c-.56-5.04-2.31-11.9-8.6-11.9h-16.5v33.5c0,.17,1,2.09,1.25,2.27,15.21,1.55,37.26,4.22,38.88-16.64l5.86-.12-3,25.99h-72v-5.01c11.45,2.23,10.58-6.63,11.05-15.45.86-16.09,1.72-45.56-.17-60.93-.93-7.6-3.44-8.03-10.89-7.61v-6.01h68.01Z"/>
  <path class="cls-1" d="M405.8,800.64v-5c6.09.68,8.09-2.06,10.71-6.79l31.77-83.23,12.56-.52,30.79,83.21c2.79,5.72,3.69,8.16,11.18,7.32v5.01h-38.01v-5.01l6.01-.49c5.87-2.84-4.41-19.81-4.89-24.91l-31.97-.45c-1.13,4.97-7.66,19.87-5.66,23.86,1.65,3.3,10.36.37,8.39,6.39-.83,2.53-2.23.61-2.37.61h-28.51ZM462.8,761.64l-13.5-37.01-12.5,37.01h26Z"/>
  <path class="cls-1" d="M256.8,705.64l-.11,4.89-4.92,1.57-.98,3.96,18.52,35.58,18.04-34.95.42-5.03-5.84-1.16-.13-4.86h27l-.44,5.07c-1.53,1.14-3.43.82-5.1,1.9-4.41,2.83-28.09,42.18-29.24,47.76-.89,4.34-.71,29.23,1,32.55,2.78,5.4,12.28-.73,10.77,7.73h-41.99v-5.01c4.73-.05,9.58,1.19,11.35-4.15,1.1-3.33,1.3-27.62.41-31.1s-25.86-44.65-28.51-46.77c-2.04-1.63-4.71-2.28-7.11-3.11l-.13-4.87h37,0Z"/>
  <path class="cls-1" d="M705.8,705.64l1,25-4.87-.14c-1.74-16.84-14.09-17.13-28.13-16.87v76.5c0,6.07,9.8,5.36,13.89,6.61l.1,4.89c-.35.5-1.28-1-1.49-1h-44.5l.07-3.93c3.58-.7,13.93-.47,13.93-5.57v-77.5c-14.97.27-25.29-.56-28.14,16.86l-5.86.13,3-25.99c1.08-.38,2.18,1,2.49,1h78.51Z"/>
  <path class="cls-1" d="M396.8,844.64c1.07,3.24-3.61,1.84-4.04,3.67,1.1,2.42-2.08,14.33.54,14.33h18.5v-15l-5-1.01c-.32-.31,1.29-1.99,1.5-1.99h16.5c.97,3.13-2.84,1.89-3.8,3.22-1.81,2.5-1.8,32.56-.02,34.59.98,1.11,5.82-.15,4.81,3.2h-19v-1.98l5-2.52v-15.5h-18.5c-1.02.75-1.08.87-1.09,2.04,0,4.39,1.25,9.64.54,14.3l5.04,3.66h-18c-1.06-3.1,3.18-2.06,3.86-3.14.26-.41.15-.87.21-1.32.61-5.09.78-26.41-.09-31.01-.74-3.91-4.35-2.13-3.98-5.52h17l.02-.02Z"/>
  <path class="cls-1" d="M460.58,843.93c34.32-3.31,32.03,46.46-4.19,41.63-22.98-3.06-23.68-38.94,4.19-41.63ZM460.53,846.87c-17.18,1.55-15.9,38.53,4.69,35.73,15.41-2.09,14.65-37.48-4.69-35.73Z"/>
  <path class="cls-1" d="M580.8,844.64v10.01h-2.99c.67-7.85-7.56-7.47-13.37-6.86-3.18,1.04-1.02,11.82-1.64,14.86,5.37-.24,10.78.93,12.5-4.98,2.95,1.96.56,4.78.61,7.44.06,2.93,2.67,7.6-2.12,4.85-.49-6.01-6.47-4.1-10.99-4.31v14.5c2.26,2.8,13.88,1.77,15.48-.51,1.33-1.88.05-6.76,3.51-5.98v11.99h-31.99c-.66-3.33,3.21-1.36,4.52-3.98.73-1.47,1-28.73.46-31.49-.92-4.67-5.21-1.8-4.97-5.53h31-.01Z"/>
  <path class="cls-1" d="M512.8,847.64c-2.7.05-6.84-.26-9.22,1.02-2.53,1.37-2.07,7.14-5.77,6.97l1-11.99c12.12,1.6,24.89,1.6,36.99,0-.88,2.36,1.65,11.2-.51,11.99-1.97.72-1.82-3.34-3-4.97-2.22-3.08-8.58-4.64-11.23-1.56l.7,32.88,6.04,1.67c.33.26-1.27,1.99-1.5,1.99h-18.5v-1.99l5-1.01v-35Z"/>
  <path class="cls-1" d="M614.8,844.64l-3.98,5.52.12,29.84c.98,2.98,10.38,1.34,13.2,1.48,3.45-1.17,1.26-8.04,5.66-7.83v11.99h-31.99c-.66-3.33,3.21-1.36,4.52-3.98.73-1.47,1-28.73.46-31.49-.92-4.67-5.21-1.8-4.97-5.53h17-.02Z"/>
  <path class="cls-1" d="M767.5,681.36c-1.17,1.37-21.68,13.38-23.7,13.87s-4.58-.11-4.94-2.21c-.25-1.46,19.23-20.84,20.67-21.23,4.45-1.22,12.09,4.77,7.98,9.57h0Z"/>
  <path class="cls-4" d="M479.81,119.64c20.27-3.66,41.45-2,61.94-1.06l3.05-25.95,30.96,4.05-3.97,21.96c-7.11-2.96-20.76.68-15.9-10.92l10.91,1.91,1.02-6.99-16.45-2.05-2.52,19c28,4.96,56.31,13.47,81.25,27.24,93.66,51.7,142.13,154.88,122.23,260.82-18.3,97.4-105.38,178.98-203.51,192.04l3,20.94,16.99-3.01-1.96-6.56-11.03,1.57.05-7.95,16.85-1.95,4.69,19.94c-1.49,1.89-30.26,7.13-31.54,5.9-.75-3.88-2.87-27.19-5.5-27.69-19.8,2.26-39.75,2.36-59.52-.22l-5.15,27.85-30.88-4.89,5.01-21.99c3.1,1.34,15.97,2.05,16.87,4.63,3.86,11.12-10.15,2.55-11.87,4.37l-.05,7.54,16.01,2.44,3.02-20.96c-39.75-5.32-77.99-21.89-110.3-45.21-141.03-101.77-128.02-315.39,20.62-402.97,26.65-15.7,57.7-27.68,88.68-30.82l-2.09-19.92-16.92,1.93,1.13,5.88,10.9-1.44.92,8.51-16.93,3.06-4.72-19.55c.49-3.29,26.41-6.72,30.74-7.02l3.98,27.56v-.02ZM492.59,125.94c-188.39,11.94-286.72,233.56-167.76,381.18,112.05,139.05,341.81,106.36,407.46-60.49,65.29-165.93-64.78-331.78-239.69-320.69h0Z"/>
  <path class="cls-4" d="M755.79,483.64l-20.06-9.6,11.6-25.42,6.56,3.61-8.09,18.97c-.57,1.87,5.74,3.68,6,3.44l10.09-26.37-11.91-4.78c-.52-1.66-.54-5.19,1.46-5.77,2.3-.67,20.12,5.21,20.42,8.43.63,6.87-14.62,29.17-16.05,37.5h-.02Z"/>
  <path class="cls-4" d="M277.67,266.52c-1.22.77-7.5-.92-7.84-2.45l7.91-15.95-6.89-3.44-9.11,23.37,13.07,4.6-2.02,6.99-20.99-7.01,15.1-37.91c1.62-1.16,19.34,8.15,19.8,9.59s-8,21.56-9.02,22.21h0Z"/>
  <path class="cls-4" d="M270.75,436.66l2.05,6.97-12.58,3.97c-2.03,2.9,9.11,20.57,9.67,24.97,1.08.77,6.11-1.07,5.79-3.25l-7.94-17.11,7.1-3.14,10.96,23.55-18.51,9.83c-2.63-.2-16.9-33.2-16.53-37.3.39-4.31,16.06-6.98,19.99-8.48h0Z"/>
  <path class="cls-4" d="M754.72,234.71l15.99,37.35c-.26,1.05-19.24,7.69-20.3,7.45-1.48-.34-3.22-4.44-2.47-5.72l12.84-6.64-10.06-22.44-5.48,1.89,7.54,17.48-7.96,3.56-10.01-22.98c4.31.35,17.38-11.75,19.92-9.95h-.01Z"/>
  <path class="cls-4" d="M292.84,511.62l5.87-4.31-10.89-13.17c1.72-1.25,6.1-5.26,7.99-4.07l12.03,18.07c.01,2.65-12.52,12.61-15.4,14.43-2.62-.44-21.4-29.17-21.45-32.62s14.32-9.05,17.33-11.2l3.04,5.92c-1.82,2.87-10.5,4.21-10.57,7.43l12.05,19.52h0Z"/>
  <path class="cls-4" d="M750.67,489.79c.75,1.27-.46,3.02-1.03,4.2-1.57,3.25-18.74,28.3-20.48,28.59l-15.93-12.93c-.44-.99,11.11-17.15,12.08-17.98,3.03-2.56,6.44.03,7.34,3.31l-8.79,14.07,4.84,2.54,11.96-19.46-9.68-6.66c-1.04-1.78.69-5.55,2.31-6.79l17.37,11.13v-.02Z"/>
  <path class="cls-4" d="M666.78,557.65l12.58,15.99c-1.08,2.49-27.31,20.08-30.89,21.25-.91.3-1.64,1.05-2.67.32-1.83-2.46-10.81-16.62-9.58-18.59.79-1.27,4.13-2.49,5.59-1.55,2.04,1.32,3.19,8.8,7.72,9.43,2.61.36,20.25-12.05,20.25-13.37l-5.03-4.11-13.33,9.56-4.51-6.47,19.87-12.47h0Z"/>
  <path class="cls-4" d="M381.82,573.65l4.84,4.33-10.38,17.69-33.29-22.5,14.13-15.38,19.66,13.36-5.48,6.48-14.01-10.79c-5.35,3.75-3.32,4.78.5,8.32,1.9,1.76,14.28,10.8,16.03,10.02l8-11.53h0Z"/>
  <path class="cls-4" d="M293.52,196.79c3.69-1.01,14.32,9.19,17.1,12.35l-14.36,19.51c-11.17-4.47.15-12.81,4.52-18.5l-5.38-3.42-12.44,19.28,9.4,7.64c1.04,1.13-1.17,4.8-2.04,4.87-1.05.08-16.5-9.06-17.53-11.32-.05-2.69,18.61-29.83,20.72-30.41h.01Z"/>
  <path class="cls-4" d="M375.79,134.64c-1.18-.89-19.25,9.45-20.55,12.01-1.06,2.09,1.8,3.81,3.21,4.88l14.93-8.92c1.59-.17,5.25,5.74,4.38,6.99l-18.65,11.91c-2.5.38-12.41-12.91-14.18-15.55-.24-1.59,1.94-2.84,2.95-3.73,3.73-3.26,24.45-16.69,28.48-16.56,1.04.03,1.26.33,1.93.96,1.27,1.2,8.73,14.84,8.37,16.31-2.06,8.28-10.58-4.57-10.88-8.29h0Z"/>
  <path class="cls-4" d="M728.8,233.66c2.66-.16,10.44-5.57,10.85-7.66l-12.87-20.35c-.22-.15-4.37,2.73-4.54,2.98-1.5,2.3,8.74,12.58,9.61,15.54l-5.55,5.46-13.12-19.48c0-4.45,10.42-11.13,14.12-13.54,4.43-.03,20.01,25.5,22.26,30.55l-17.27,12.47-3.5-5.97h.01Z"/>
  <path class="cls-4" d="M645.91,134.76c-2.36,3.84-5.73,13.18-10.67,7.91-.62-.73-.51-1.43-.29-2.29s8.65-14.09,9.38-14.73c.55-.49.83-1.2,1.8-.9,4.32,3.05,32.35,18,31.59,22.25l-11.35,13.71-3.86.79-17.61-14.19,4.23-4.57,15.18,9.66c1.4-1.04,4.1-2.69,3.05-4.75-1.13-2.23-19.97-13.76-21.45-12.89h0Z"/>
  <path class="cls-4" d="M418.86,592.68l25.51,7.96-5.53,20.58-25.59-8.52,5.61-20.01h0ZM433.78,611.64l.61-6.03-10.58-3.96-.58,7.04,10.55,2.95h0Z"/>
  <path class="cls-4" d="M249.28,278.71l21.37,7.4-7.48,23.46c-3.34-1.17-19.42-1.99-20.29-4.57-.76-2.23,4.96-26.18,6.39-26.29h.01ZM260.77,289.7l-5.96-2.05-1.96,12.95,5.94,1.05,1.98-11.95Z"/>
  <path class="cls-4" d="M782.87,408.73c-.01.16-.91.18-2.08.92-1,.63-1.62,1.44-1.98,1.99l1.98-1.99-6.03,26.97-20.53-5.93,4.58-25.05c19.64,1.93,24.09,2.73,24.06,3.09h0ZM771.81,415.66l-6.91-.92-2.69,10.96,7.59,1.96,2.01-11.99h0Z"/>
  <path class="cls-4" d="M772.75,278.66c1.4,1.03,6.72,23.05,5.93,25.34-.92,2.68-16.49,4.86-19.89,5.22l-6.57-23.63,20.52-6.93h.01ZM767.68,288.77c-1.69-.42-5.22-.52-5.8,1.5l1.93,10.38,6.07-1.61-2.2-10.27Z"/>
  <path class="cls-4" d="M241.79,408.64l21.07-1.56,5.49,23.59-20.59,5.57s-5.97-27.6-5.97-27.6ZM257.79,414.65c-1.81,0-6.33-.68-6.86,1.57l1.95,10.34,6.93-.93-2.01-10.97h-.01Z"/>
  <path class="cls-4" d="M582.81,621.65l-5.01-22,25.04-6.6,5.55,20.63-25.58,7.97ZM600.8,609.63l-3.64-6.89-10.28,1.97.94,7.93,12.99-3.01h0Z"/>
  <path class="cls-4" d="M258.69,374.75l2.69,23.96-20.64,3.52c-2.18-1.68-2.85-22.5-3.95-26.59l21.9-.9h0ZM251.79,382.65h-6l1.01,11.99,7-1-2.01-10.99Z"/>
  <path class="cls-4" d="M781.8,402.65l-21-3,2-25.01,21.52,1.91c2.22,4.21-3.13,20.42-2.51,26.1h-.01ZM774.78,394.65c1.27-5.06,3.41-13.69-4.35-11.89l-1.45,1.56-1.1,7.71,6.91,2.62h-.01Z"/>
  <path class="cls-4" d="M615.81,610.64l-6.95-20.37,21.35-9.54,9.57,18.35c-.37,1.71-20.76,10.14-23.98,11.56h.01ZM626.7,590.73c-2.67-.17-9.69,2.04-9.47,4.98.56,7.49,7.54,2.02,11.58.93l-2.1-5.91h0Z"/>
  <path class="cls-4" d="M412.64,588.79c1.73,2.78-4.76,17.11-5.94,20.77-9.15-.9-16.37-7.22-24.9-9.94l10.47-19.86,20.37,9.02h0ZM391.8,596.63l10.51,3.97,2.42-6.33c-.36-1.19-9.97-5.25-10.88-4.6l-2.05,6.96h0Z"/>
  <path class="cls-4" d="M407.79,109.64c.21,5.21,7.46,14.59,5.89,19.33-.51,1.55-19.49,10.96-20.87,10.24l-8.95-17.93,23.93-11.65h0ZM393.88,123.73l2.58,5.82,9.22-4.4-1.89-5.52-9.91,4.09h0Z"/>
  <path class="cls-4" d="M709.29,514.89c3,1.79,15.36,11.29,15.18,14.25-1.92,2.79-15.01,18.79-17.03,18.43l-14.56-15.29,16.41-17.39h0ZM709.28,524.7l-6.41,7.58,4.43,5.35,7.25-8.49-5.27-4.44Z"/>
  <path class="cls-4" d="M241.3,338.64c-.54-.09-1.56-.99-2.34-1.17l-.23-1.3,2.59-23.55,20.37,2.13-2.05,23.24h0s-2.18.61-2.34.65c-4.9,1.36-14.12.32-16,0ZM253.8,321.64l-5.9.11-1.11,9.89,5.9-.11,1.11-9.89h0Z"/>
  <path class="cls-4" d="M637.67,119.77c1.46,2.31-7.55,16.82-9.47,19.82l-20.3-10.61,6.92-19.33,22.86,10.12h-.01ZM628.8,123.66l-9.99-5.01-2.02,6.99,9.41,3.09,2.59-5.06h0Z"/>
  <path class="cls-4" d="M780.79,312.66l2.59,24.06-20.61,2.5-3.97-24.57,21.99-1.99h0ZM774.79,320.65l-6.95,1.04.96,10.96,6.99-1-1.01-10.99h.01Z"/>
  <path class="cls-4" d="M691.81,184.66l15.49-13,16.43,18.35-15.43,14.62-16.49-19.96h0ZM705.41,181.69l-3.37,4.47c4.37,4.29,6.86,11.95,11.69,3.12l-8.32-7.58h0Z"/>
  <path class="cls-4" d="M413.8,106.65l23.4-6.88c1.65.37,6.91,17.77,6.51,19.22-.61,2.16-18.77,7.12-22.26,7.58l-7.64-19.91h0ZM433.79,107.65l-10.58,3.96.6,6.04,11-3.02-1.01-6.98h-.01Z"/>
  <path class="cls-4" d="M312.31,514.83l16.42,17.45-14.57,14.29c-1.98.34-15.46-14.52-15.47-17.43,0-3.85,10.25-11.85,13.61-14.32h.01ZM312.71,524.75c-1.54-.62-5.09,2.8-4.84,4.26l7.23,6.49,3.68-3.32-6.07-7.42h0Z"/>
  <path class="cls-4" d="M607.8,106.66l-7.59,19.9-21.31-6.03,4.95-20.85,23.95,6.97h0ZM597.72,110.74c-6.05-2.19-10.03-4.44-10.92,3.89l9.99,3.02.93-6.91h0Z"/>
  <path class="cls-4" d="M315.31,171.82l13.52,14.32-15.36,16.36-15.65-12.36c6.05-5.91,10.22-13.78,17.49-18.32ZM314.44,182.72l-5.5,6.6,3.36,4.29,6.43-6.61c.23-1.32-2.98-4.51-4.29-4.29h0Z"/>
  <path class="cls-4" d="M351.72,167.54l-17.28,14.03-13.31-14.43c-.19-3.15,14.65-14.48,18.03-16.42,2.12,2.01,13.72,15.19,12.56,16.82ZM337.47,161.79l-6.6,5.5,3.57,4.25c3.6-1.77,9.56-4.48,5.38-8.43-.76-.72-1.07-1.44-2.35-1.32Z"/>
  <path class="cls-4" d="M682.1,151.95l1.62-.87c1.82-.19,16.45,12.26,16.98,14.26.62,2.37-10.4,13.36-12.52,16.17-2.54.5-14.45-12.22-17.26-14.51l11.19-15.05h-.01ZM688.78,171.64l2.98-4.49-7.44-6.5-3.34,4.51c1.23,1.24,6.28,7.53,7.79,6.48h0Z"/>
  <path class="cls-4" d="M687.49,537.77l14.35,15.37c0,2.08-14.82,14.67-16.39,14.39l-14.6-15.29,16.64-14.48h0ZM687.3,546.66l-6.48,6.48,4.62,4.43,6.32-5.43-4.46-5.48Z"/>
  <path class="cls-4" d="M332.42,537.7c3.18-.99,13.31,12.9,17.36,14.52l-12.48,16.38c-2.7-2.95-18.51-14.38-18.26-17.46l13.38-13.43h0ZM333.3,546.66l-4.48,4.48c1.81,1.62,5.83,6.84,8.34,6.35l3.61-3.35-7.47-7.48Z"/>
  <path class="cls-4" d="M535.7,608.75l2.67,19.97-23.58,1.94-.56-20.08c6.8-2.76,14.31-1.89,21.47-1.83h0ZM529.69,615.76l-7.89-.12.47,6.06,8.53-.06-1.11-5.88Z"/>
  <path class="cls-4" d="M506.3,608.64c3.14.98.58,7.43.51,9.51-.15,4.16.08,8.35,0,12.49l-23.01-1,2.01-22c1.09-.39,2.19,1,2.49,1,3.78,0,15.51-.78,18,0ZM500.8,621.64l-.93-5.52-8.08-.47v6.01h9s0-.02,0-.02Z"/>
  <path class="cls-4" d="M506.8,91.64c-.42,5.98.63,12.02.58,17.95,0,1.17-.02,1.29-1.08,2.05h-21.5l-1.81-17.74,1.31-2.26h22.5ZM499.81,98.64h-9.01c-1.12,7.48,3.24,6.09,9.01,6.01v-6.01Z"/>
  <path class="cls-4" d="M534.3,91.64c.49.06,3.44,1.18,3.56,1.62l-1.06,18.38h-21.5c-1.13-.77-1.03-.94-1.06-2.07-.19-5.84,1.15-12,.56-17.93,6.15.58,13.53-.79,19.5,0ZM530.8,98.65l-9-.02v6.01h8l1-5.99Z"/>
  <g>
    <path class="cls-2" d="M515.8,319.64c1.59.33,2.07-.48,3.01-1.49,9.46-10.26,12.26-33.42,18.82-47.18,12.25-25.7,40.32-46,69.18-47.32v15.5c0,13.51-11.49,37.3-20.95,47.05-22.2,22.86-57.13,16.54-65.76,53.24-6.34,26.98-1.95,65.9,24.02,81.4,27.26,16.28,54.93,2.42,80.67,13.33,11.51,4.88,25.28,16.96,28.01,29.48-2.91,2.79-11.9-9.69-14.52-11.97-14.49-12.57-32.3-15.16-50.47-10.02,8.9,7.36,15.72,12.9,20.85,23.63,2.41,5.03,5.14,16.35,8.45,20.06,2.7,3.02,9.83,4.26,13.69,5.32.37,3.92-5.73,2.95-8.04,2.54-17.36-3.13-19.61-20.31-28.13-31.88-12.06-16.37-38.37-20.12-55.68-29.32l-18.15-12.34c-.62,10.14.6,18.55,6.58,26.9,7.05,9.85,17.87,11.47,27.72,17.29,23.77,14.04,18.5,38.41,40.67,52.31-4.18,3.88-11.25.02-15-2.98-8.4-6.71-10.5-19.27-17.15-27.85-8.99-11.6-23.59-14.33-36.82-18.67,1.5,8.86,2.8,17.88,6.23,26.26,5.44,13.27,17.18,24.81,14.76,40.73l-26.98-39.99c-4.58,14.35-11.23,27.76-7.74,43.22.7,3.11,2.66,6.21,3.28,8.75.32,1.32.06,3.05-1.05,3.01-.93-.03-8.49-8.9-9.33-10.65-10.52-21.91,12.16-48.36,6.39-71.39-.97-3.88-3.74-7.01-4.57-10.94-1.22-.89-8.39,6.59-9.5,7.99-16.28,20.42-1.27,39.32-11.69,57.31-2.97,5.13-9.53,12.26-15.79,12.21,19.12-18.17,2.33-43.14,12.99-64.5-7.83,2.42-16.33,6.48-22.04,12.45-11.42,11.92-13.13,37.72-34.95,36.54-1.76-1.48,7.51-6.12,8.49-7,8.33-7.52,11.29-25.69,19.99-36.01,11.94-14.16,32.3-14.19,41.31-29.69,1.07-1.85,4.2-8.15,4.2-9.8v-16.5c-19.88,21.63-54.04,18.68-72.42,42.08-8.06,10.26-10.13,25.13-23.31,30.69-4.74,2-11.2,4.08-15.26-.28-.03-1.28,8.47-2.74,10.37-3.61,8.26-3.81,10.34-18.66,15.19-26.81s9.2-10.78,16.15-16.79c.71-.61,1.89.04,1.27-2.28-20.82-6.5-40.53-.44-54.98,15.51-2.5,2.76-3.44,8.09-8.02,7.47-3.78-3.83,13.71-21.85,17.08-24.41,31.81-24.12,80.12,6.78,107.32-34.68,12.69-19.33,13.24-59.38,1.39-79.21-13.33-22.32-33.78-18.91-52.28-33.72-13.53-10.83-28.52-37-28.52-54.48v-14.5c32.25,1.96,57.12,21.5,70.17,50.33,7.06,15.6,7.71,32.79,19.33,45.67.28.15,1.5-2.35,1.5-2.5v-17c0-8.32-15.87-35.17-19.27-45.73-10.3-31.97,4.54-58.02,24.77-81.75,18.44,22.75,33.62,49.32,24.53,79.52-4.49,14.92-20.03,35.68-20.03,50.97v16.5l.02-.02ZM509.8,218.64v62c1.62-.16,1.87-4.27,1.99-5.51,1.36-14.34,1.1-35.65,0-49.98-.1-1.35-.48-6.07-1.99-6.51h0ZM485.79,297.64c-.1-2.19-2.13-4.39-3.48-6.01-7.95-9.62-21.31-20.24-31.64-27.36-1.51-1.04-2.93-2.77-4.88-2.61l39.99,35.99h.01ZM575.8,261.65c-2.59.45-5.14,2.68-7.32,4.17-9.28,6.34-19.9,15.26-27.2,23.8-1.57,1.84-4.02,4.63-4.48,7.01l38.99-34.99h.01Z"/>
    <path class="cls-3" d="M316.3,312.64l-1.49-2.48c11.26-9.71,32.71-13.69,47.37-12.39,43.32,3.84,55.69,48.45,93.59,56.41,8.23,1.73,14.01.9,22.05.95,1.96,1.09-1.42,3.5-2,4.03-20.5,18.64-53.27,7.56-72.48-7.54-19.24-15.12-42.79-38.97-70.03-38.97h-17.01Z"/>
    <path class="cls-3" d="M705.8,311.64c-22.82,1.32-44.3,6.1-63.32,19.19-12.04,8.28-21.55,20.18-34.16,27.84-19.83,12.04-45.72,15.33-64.52-.53,2.41-5.72,9.24-2.5,13.45-2.45,34.38.44,50.93-36.69,78.87-50.22,16.08-7.79,33.13-9.62,50.46-5.1,2.42.63,23.16,7.17,19.22,11.28h0Z"/>
    <path class="cls-3" d="M310.8,358.64c-1.89-1.65,8.02-7.81,9.08-8.42,7.94-4.59,17.13-6.8,26.26-6.44,40.14,1.55,47.12,35.74,82.66,45.36,3.94,1.06,17.06,2.48,18.54,3.46.47.31,1.82,1.49.98,2.05-16,10.53-39.85,9.31-56.55.51-18.99-9.99-35.28-36.52-58.48-36.52h-22.5,0Z"/>
    <path class="cls-3" d="M711.8,358.64h-22.5c-24.53,0-42.26,30.86-63.82,39.18-12.35,4.76-26.36,5.18-39.11,1.74-1.63-.44-15.42-4.46-10.61-7.46,11.69-1.17,23.2-2.77,33.7-8.3,18.19-9.58,28.11-29.67,48.06-36.94,9.3-3.39,23.85-4.13,33.48-1.93,7.27,1.66,17.86,6.46,20.8,13.7h0Z"/>
  </g>
  <path class="cls-4" d="M337.53,492.81c6.49-.96,10.5,9.22,2.53,10.68-7.96,1.45-8.98-9.72-2.53-10.68Z"/>
  <path class="cls-4" d="M352.44,199.91c7.57-.8,8.38,10.27.79,10.72-8.04.48-6.29-10.14-.79-10.72Z"/>
  <path class="cls-4" d="M681.54,492.79c7.54-1.46,8.41,10.43.66,10.86-5.81.32-7.55-9.53-.66-10.86Z"/>
  <path class="cls-4" d="M337.04,213.89c3.98-4,13.77,1.99,7.28,7.77s-11.47-3.56-7.28-7.77Z"/>
  <path class="cls-4" d="M681.48,212.91c8.97-.24,5.03,15.91-3.65,9.21-4.29-3.31-1.13-9.08,3.65-9.21Z"/>
  <path class="cls-4" d="M532.55,137.89c5.46,5.42-4.68,12.57-8.85,7.36s4.45-11.71,8.85-7.36Z"/>
  <path class="cls-4" d="M289.04,407.4c-4.15-4.17,1.55-12.97,7.33-8.83,5.65,4.05-2.42,13.76-7.33,8.83Z"/>
  <path class="cls-4" d="M300.5,431.84c8.7-2.62,9.34,9.09,3.57,10.66-6.05,1.64-9.02-9.02-3.57-10.66Z"/>
  <path class="cls-4" d="M308.53,447.79c7.83-2.08,8.49,9.85,1.72,10.87-6.8,1.03-7.1-9.44-1.72-10.87Z"/>
  <path class="cls-4" d="M508.5,135.84c10.02-3.02,10.56,11.4.85,9.81-4.86-.8-4.84-8.61-.85-9.81Z"/>
  <path class="cls-4" d="M327.27,479.09c8.26-.7,7.8,9.75,1.98,10.59-7.18,1.04-8.43-10.05-1.98-10.59Z"/>
  <path class="cls-4" d="M725.04,406.4c-2.71-2.71-1.5-10.51,4.03-9.58,9.77,1.64,2.67,16.28-4.03,9.58Z"/>
  <path class="cls-4" d="M463.56,142.89c4.45,4.52-2.15,13-7.71,8.21-5.53-4.76,3.78-12.2,7.71-8.21Z"/>
  <path class="cls-4" d="M722.5,414.81c7.54-2.28,9.31,9.67,2.57,10.67s-8.14-8.98-2.57-10.67Z"/>
  <path class="cls-4" d="M656.5,518.81c7.81-2.35,8.77,9.57,1.57,10.67-7.26,1.11-6.26-9.26-1.57-10.67Z"/>
  <path class="cls-4" d="M560.51,142.85c8.27-2.46,9.44,7.9,3.57,9.61-6.89,2.02-10.2-7.64-3.57-9.61Z"/>
  <path class="cls-4" d="M290.53,378.77c6.55-.94,6.96,10.95-.23,10.97-6.63.02-6.43-10.01.23-10.97Z"/>
  <path class="cls-4" d="M367.56,519.89c4.11,4.15-1.42,13.07-7.27,7.77-6.25-5.66,3.23-11.84,7.27-7.77Z"/>
  <path class="cls-4" d="M623.04,176.4c-3.61-3.64-.62-10.55,6.04-8.55,8.75,2.62-.58,14.05-6.04,8.55Z"/>
  <path class="cls-4" d="M728.47,378.81c7.89-2.73,10.23,8.58,3.36,10.43-5.77,1.55-8.17-8.77-3.36-10.43h0Z"/>
  <path class="cls-4" d="M319.54,242.79c4.84-.94,8.11,4.08,4.27,8.37-6.78,7.6-13.46-6.59-4.27-8.37Z"/>
  <path class="cls-4" d="M717.5,430.77c5.79-1.48,9.24,9.03,3.59,10.71-7.94,2.35-9.29-9.25-3.59-10.71Z"/>
  <path class="cls-4" d="M374.05,531.89c3.55-3.53,11.74.25,9.26,5.73-3.46,7.61-14.67-.35-9.26-5.73Z"/>
  <path class="cls-4" d="M532.55,573.89c3.17,3.15-.14,10.67-4.78,9.36-9.55-2.69-1.27-15.38,4.78-9.36Z"/>
  <path class="cls-4" d="M348.5,506.81c7.26-2.24,10.1,8.56,3.33,10.44-5.45,1.51-9.53-8.53-3.33-10.44Z"/>
  <path class="cls-4" d="M653.52,188.85c11-3.29,8.36,13.3-.47,9.06-4.32-2.07-3.95-7.74.47-9.06Z"/>
  <path class="cls-4" d="M693.46,478.86c6.9-.63,6.85,10.88-.16,10.89-6.68,0-5.77-10.35.16-10.89Z"/>
  <path class="cls-4" d="M510.54,573.8c7.54-1.48,8.87,12.93-1.79,9.39-5.39-1.79-2.67-8.52,1.79-9.39Z"/>
  <path class="cls-4" d="M493.28,573.04c7.94-.36,6.67,11.16-.85,10.35-7.2-.77-4.75-10.09.85-10.35Z"/>
  <path class="cls-4" d="M445.56,563.89c5.57,5.55-5.98,12.61-9.29,5.75-2.94-6.09,5.87-9.17,9.29-5.75Z"/>
  <path class="cls-4" d="M426.46,151.86c6.11-.54,7.73,9.77.71,10.53-8.07.87-7.27-9.95-.71-10.53Z"/>
  <path class="cls-4" d="M292.51,308.81c7.36-2.18,10.03,8.56,3.32,10.43-5.82,1.63-8.75-8.83-3.32-10.43h0Z"/>
  <path class="cls-4" d="M668.07,506.91c6.78-5.6,12.97,11.67,1.29,9.74-4.99-.82-3.81-7.65-1.29-9.74Z"/>
  <path class="cls-4" d="M672.56,201.89c5.57,5.55-5.98,12.61-9.29,5.75-2.94-6.09,5.87-9.17,9.29-5.75Z"/>
  <path class="cls-4" d="M441.52,146.83c6.93-2.02,10.05,8.05,2.55,9.64-8.08,1.71-7.9-8.08-2.55-9.64Z"/>
  <path class="cls-4" d="M721.5,291.81c8.72-2.68,10.56,12.94,0,9.65-4.24-1.32-4.06-8.4,0-9.65Z"/>
  <path class="cls-4" d="M378.53,177.8c6.31-1.69,10.25,7.74,3.54,9.68-8.26,2.38-9.62-8.05-3.54-9.68Z"/>
  <path class="cls-4" d="M480.55,571.89c5.41,5.39-5.94,13.01-9.26,5.73-2.49-5.47,5.71-9.27,9.26-5.73Z"/>
  <path class="cls-4" d="M591.05,152.89c3.84-3.82,11.44.81,9.28,5.72-3.34,7.6-14.76-.27-9.28-5.72Z"/>
  <path class="cls-4" d="M729.47,343.8c6.77-2.38,11.4,6.59,5.3,9.35-6.58,2.98-10.73-7.45-5.3-9.35h0Z"/>
  <path class="cls-4" d="M559.05,576.4c-5.47-5.48,5.96-13.3,9.28-5.71,2.16,4.92-5.79,9.21-9.28,5.71Z"/>
  <path class="cls-4" d="M645.55,178.89c5.41,5.42-5.95,12.99-9.26,5.73-2.5-5.48,6.04-8.95,9.26-5.73Z"/>
  <path class="cls-4" d="M289.51,325.84c10.59-3.18,8.74,12.22,0,9.64-3.82-1.13-3.86-8.48,0-9.64Z"/>
  <path class="cls-4" d="M454.07,568.91c2.56-2.42,8.42-2.32,9.57,1.44,2.82,9.22-15.13,8.62-9.57-1.44h0Z"/>
  <path class="cls-4" d="M414.55,159.89c5.31,4.63-3.7,12.9-7.76,8.28-4.49-5.12,3.35-12.12,7.76-8.28Z"/>
  <path class="cls-4" d="M695.53,237.39c-4.68,3.92-12.92-5.93-5.71-9.22,6.5-2.96,10.03,5.61,5.71,9.22Z"/>
  <path class="cls-4" d="M420.05,557.89c3.7-3.64,11.87.55,9.28,5.76-3.56,7.15-14.4-.72-9.28-5.76Z"/>
  <path class="cls-4" d="M543.46,571.81c4.67-1.6,10.06,1.02,7.22,6.16-5.49,9.93-14.46-3.68-7.22-6.16Z"/>
  <path class="cls-4" d="M474.5,139.83c8.68-2.71,9.9,8.52,2.58,9.65-6.05.94-7.92-7.98-2.58-9.65Z"/>
  <path class="cls-4" d="M309.51,258.84c10.64-3.2,8.38,12.12,0,9.64-3.82-1.13-3.86-8.48,0-9.64Z"/>
  <path class="cls-4" d="M497.55,137.89c3.59,3.6-.65,10.18-6.03,8.58-8.35-2.49.45-14.17,6.03-8.58Z"/>
  <path class="cls-4" d="M328.5,227.81c7.11-2.2,9.67,7.78,3.61,9.65-8.6,2.64-8.18-8.23-3.61-9.65Z"/>
  <path class="cls-4" d="M321.56,473.4c-5.13,5.16-11.86-4.59-6.16-8.68s10.14,4.68,6.16,8.68Z"/>
  <path class="cls-4" d="M702.5,463.81c8.23-2.48,8.67,10.76.79,10.44-5.27-.21-5.61-8.98-.79-10.44Z"/>
  <path class="cls-4" d="M398.55,176.4c-6.68,6.64-14.16-7.83-4.15-8.75,5.37-.49,6.94,5.98,4.15,8.75Z"/>
  <path class="cls-4" d="M576.47,146.8c6.35-2.2,10.69,5.26,5.75,8.76-6.84,4.85-11.57-6.74-5.75-8.76Z"/>
  <path class="cls-4" d="M579.54,562.79c6.87-1.33,8.58,8.9,1.7,9.88s-8.72-8.52-1.7-9.88Z"/>
  <path class="cls-4" d="M360.95,197.5c-3.17-13.56,15.07-9.95,7.87.65l-7.87-.65Z"/>
  <path class="cls-4" d="M711.55,447.8c9.22-1.75,5.32,15.47-2.68,9.28-3.47-2.68-1.41-8.5,2.68-9.28Z"/>
  <path class="cls-4" d="M298.53,291.81c7.42-1.11,7.15,10.75-.24,10.44-6.03-.26-5.67-9.55.24-10.44Z"/>
  <path class="cls-4" d="M705.66,252.5c-13.34,3.11-10.02-15.06.65-7.87l-.65,7.87Z"/>
  <path class="cls-4" d="M549.55,140.89c4.25,6.75-4.76,10.61-9.26,5.77-1.06-2.09-.75-5.4,1.51-6.51l7.76.75h-.01Z"/>
  <path class="cls-4" d="M729.51,361.84c9.49-2.86,9.74,10.82,2.02,9.64-5.19-.79-6.73-8.22-2.02-9.64Z"/>
  <path class="cls-4" d="M294.04,415.89c4.94-4.96,12.29,4.22,6.17,8.67-5.35,3.88-9.92-4.89-6.17-8.67Z"/>
  <path class="cls-4" d="M287.47,361.8c8.14-2.82,9.85,7.82,3.62,9.65-7.23,2.13-7.78-8.21-3.62-9.65Z"/>
  <path class="cls-4" d="M708.51,258.84c8.74-2.63,9.34,8.1,3.57,9.66s-9.04-8.01-3.57-9.66Z"/>
  <path class="cls-4" d="M640.04,531.89c3.18-3.18,10.35-1.03,8.58,5.04-2.39,8.2-14.77,1.15-8.58-5.04Z"/>
  <path class="cls-4" d="M608.05,167.4c-4.51-4.49,3.15-11.73,7.74-7.24,5.18,5.08-3.22,11.73-7.74,7.24Z"/>
  <path class="cls-4" d="M727.46,308.85c6.57-.6,6.92,10.02.68,10.58s-7.56-9.95-.68-10.58Z"/>
  <path class="cls-4" d="M734.55,334.4c-3,3.01-9.03.99-8.81-4.28.4-9.7,14.93-1.86,8.81,4.28Z"/>
  <path class="cls-4" d="M715.51,274.82c8.75-2.6,9.85,12.24,1.01,9.64-4.15-1.22-5.45-8.32-1.01-9.64Z"/>
  <path class="cls-4" d="M601.55,557.89c4.75,4.68-5.92,12.45-9.28,5.76-2.59-5.18,5.57-9.41,9.28-5.76Z"/>
  <path class="cls-4" d="M405.51,549.84c8.81-2.66,11.26,10.77.83,8.78-4.74-.91-4.77-7.59-.83-8.78Z"/>
  <path class="cls-4" d="M286.05,352.4c-4.2-4.2,2.46-11.74,7.35-7.84s-2.64,12.55-7.35,7.84Z"/>
  <path class="cls-4" d="M302.5,274.81c7.79-2.36,8.37,8.86,1.74,9.86-6.82,1.03-6.46-8.43-1.74-9.86Z"/>
  <path class="cls-4" d="M608.98,550.81c2.08-3.38,11.38-2.15,9.68,4.11-2.05,7.54-13.74,2.49-9.68-4.11Z"/>
  <path class="cls-4" d="M390.51,540.84c9.35-2.82,9.6,9.74,1.78,9.41-4.81-.21-6.48-7.99-1.78-9.41Z"/>
  <path class="cls-4" d="M626.43,540.78c9.61-3.34,10.19,9.41,1.86,8.97-5.73-.31-4.77-7.95-1.86-8.97Z"/>
</svg>